<svg width="32" height="23" viewBox="0 0 32 23" fill="none" xmlns="http://www.w3.org/2000/svg">
<rect width="31.8005" height="22.967" rx="11.4835" fill="white" style="fill:white;fill-opacity:1;"/>
<path d="M23.6043 6.40143H21.523L20.374 4.66708C19.9404 4.01669 19.1817 3.62646 18.4012 3.62646H13.6317C12.8513 3.62646 12.0925 4.01669 11.6589 4.66708L10.5099 6.40143H8.42868C7.10624 6.40143 6.04395 7.46372 6.04395 8.78616V17.1978C6.04395 18.5202 7.10624 19.5825 8.42868 19.5825H23.6043C24.9267 19.5825 25.989 18.5202 25.989 17.1978V8.78616C25.989 7.46372 24.9267 6.40143 23.6043 6.40143ZM16.0165 17.6314C13.0464 17.6314 10.64 15.2249 10.64 12.2549C10.64 9.28479 13.0464 6.90005 16.0165 6.90005C18.9866 6.90005 21.393 9.30647 21.393 12.2765C21.393 15.2249 18.9866 17.6314 16.0165 17.6314ZM23.3008 9.76174C23.2791 9.76174 23.2574 9.76174 23.214 9.76174H22.3469C21.9566 9.74006 21.6531 9.41487 21.6748 9.02464C21.6965 8.65609 21.9783 8.37425 22.3469 8.35258H23.214C23.6043 8.3309 23.9295 8.63441 23.9511 9.02464C23.9728 9.41487 23.691 9.74006 23.3008 9.76174Z" fill="#2A72AD" style="fill:#2A72AD;fill:color(display-p3 0.1647 0.4471 0.6784);fill-opacity:1;"/>
<path d="M16.0167 9.28467C14.369 9.28467 13.0249 10.6288 13.0249 12.2764C13.0249 13.9241 14.369 15.2465 16.0167 15.2465C17.6643 15.2465 19.0084 13.9024 19.0084 12.2547C19.0084 10.6071 17.6643 9.28467 16.0167 9.28467Z" fill="#2A72AD" style="fill:#2A72AD;fill:color(display-p3 0.1647 0.4471 0.6784);fill-opacity:1;"/>
</svg>
